Griffith_Gothic-Ultra_Italic.ufo
<glyph name="dollar" format="1">
  <advance width="613"/>
  <unicode hex="0024"/>
  <outline>
    <contour>
      <point x="642" y="617" type="curve"/>
      <point x="536" y="502" type="line"/>
      <point x="504" y="537"/>
      <point x="465" y="562"/>
      <point x="424" y="575" type="curve"/>
      <point x="386" y="423" type="line"/>
      <point x="518" y="372"/>
      <point x="575" y="324"/>
      <point x="575" y="225" type="curve" smooth="yes"/>
      <point x="575" y="95"/>
      <point x="480" y="3"/>
      <point x="295" y="2" type="curve"/>
      <point x="271" y="-95" type="line"/>
      <point x="167" y="-95" type="line"/>
      <point x="193" y="12" type="line"/>
      <point x="99" y="32"/>
      <point x="28" y="78"/>
      <point x="-20" y="131" type="curve"/>
      <point x="86" y="246" type="line"/>
      <point x="133" y="192"/>
      <point x="178" y="157"/>
      <point x="240" y="143" type="curve"/>
      <point x="280" y="302" type="line"/>
      <point x="165" y="349"/>
      <point x="99" y="395"/>
      <point x="99" y="494" type="curve" smooth="yes"/>
      <point x="99" y="636"/>
      <point x="215" y="717"/>
      <point x="369" y="718" type="curve"/>
      <point x="380" y="762" type="line"/>
      <point x="484" y="762" type="line"/>
      <point x="471" y="708" type="line"/>
      <point x="538" y="694"/>
      <point x="593" y="663"/>
    </contour>
    <contour>
      <point x="350" y="582" type="line"/>
      <point x="300" y="578"/>
      <point x="273" y="553"/>
      <point x="273" y="508" type="curve" smooth="yes"/>
      <point x="273" y="485"/>
      <point x="284" y="468"/>
      <point x="317" y="450" type="curve"/>
    </contour>
    <contour>
      <point x="401" y="210" type="curve" smooth="yes"/>
      <point x="401" y="240"/>
      <point x="384" y="258"/>
      <point x="349" y="275" type="curve"/>
      <point x="314" y="137" type="line"/>
      <point x="376" y="140"/>
      <point x="401" y="168"/>
    </contour>
  </outline>
</glyph>
<glyph name="plus" format="1">
  <advance width="600"/>
  <unicode hex="002B"/>
  <outline>
    <contour>
      <point x="588" y="271" type="line"/>
      <point x="406" y="271" type="line"/>
      <point x="406" y="88" type="line"/>
      <point x="236" y="88" type="line"/>
      <point x="236" y="271" type="line"/>
      <point x="54" y="271" type="line"/>
      <point x="54" y="439" type="line"/>
      <point x="236" y="439" type="line"/>
      <point x="236" y="622" type="line"/>
      <point x="406" y="622" type="line"/>
      <point x="406" y="439" type="line"/>
      <point x="588" y="439" type="line"/>
    </contour>
  </outline>
</glyph>
<glyph name="hyphen" format="1">
  <advance width="356"/>
  <unicode hex="002D"/>
  <unicode hex="2010"/>
  <unicode hex="2011"/>
  <outline>
    <contour>
      <point x="353" y="380" type="line"/>
      <point x="310" y="206" type="line"/>
      <point x="14" y="206" type="line"/>
      <point x="57" y="380" type="line"/>
    </contour>
  </outline>
</glyph>
<glyph name="period" format="1">
  <advance width="268"/>
  <unicode hex="002E"/>
  <outline>
    <contour>
      <point x="205" y="103" type="curve" smooth="yes"/>
      <point x="205" y="40"/>
      <point x="158" y="-7"/>
      <point x="95" y="-7" type="curve" smooth="yes"/>
      <point x="32" y="-7"/>
      <point x="-15" y="40"/>
      <point x="-15" y="103" type="curve" smooth="yes"/>
      <point x="-15" y="166"/>
      <point x="32" y="213"/>
      <point x="95" y="213" type="curve" smooth="yes"/>
      <point x="158" y="213"/>
      <point x="205" y="166"/>
    </contour>
  </outline>
</glyph>
<glyph name="slash" format="1">
  <advance width="476"/>
  <unicode hex="002F"/>
  <outline>
    <contour>
      <point x="584" y="735" type="line"/>
      <point x="82" y="-95" type="line"/>
      <point x="-114" y="-95" type="line"/>
      <point x="388" y="735" type="line"/>
    </contour>
  </outline>
</glyph>
<glyph name="zero" format="1">
  <advance width="632"/>
  <unicode hex="0030"/>
  <outline>
    <contour>
      <point x="638" y="489" type="line" smooth="yes"/>
      <point x="638" y="455"/>
      <point x="630" y="383"/>
      <point x="622" y="347" type="curve" smooth="yes"/>
      <point x="564" y="90"/>
      <point x="461" y="-12"/>
      <point x="275" y="-12" type="curve" smooth="yes"/>
      <point x="131" y="-12"/>
      <point x="36" y="73"/>
      <point x="36" y="226" type="curve" smooth="yes"/>
      <point x="36" y="231" type="line" smooth="yes"/>
      <point x="36" y="265"/>
      <point x="44" y="337"/>
      <point x="52" y="373" type="curve" smooth="yes"/>
      <point x="110" y="630"/>
      <point x="213" y="732"/>
      <point x="399" y="732" type="curve" smooth="yes"/>
      <point x="543" y="732"/>
      <point x="638" y="647"/>
      <point x="638" y="494" type="curve" smooth="yes"/>
    </contour>
    <contour>
      <point x="428" y="501" type="curve" smooth="yes"/>
      <point x="428" y="505" type="line" smooth="yes"/>
      <point x="428" y="547"/>
      <point x="414" y="570"/>
      <point x="379" y="570" type="curve" smooth="yes"/>
      <point x="336" y="570"/>
      <point x="314" y="533"/>
      <point x="277" y="399" type="curve" smooth="yes"/>
      <point x="253" y="310"/>
      <point x="246" y="253"/>
      <point x="246" y="219" type="curve" smooth="yes"/>
      <point x="246" y="215" type="line" smooth="yes"/>
      <point x="246" y="173"/>
      <point x="260" y="150"/>
      <point x="295" y="150" type="curve" smooth="yes"/>
      <point x="338" y="150"/>
      <point x="360" y="187"/>
      <point x="397" y="321" type="curve" smooth="yes"/>
      <point x="421" y="410"/>
      <point x="428" y="467"/>
    </contour>
  </outline>
</glyph>
<glyph name="two" format="1">
  <advance width="571"/>
  <unicode hex="0032"/>
  <outline>
    <contour>
      <point x="602" y="553" type="curve" smooth="yes"/>
      <point x="602" y="442"/>
      <point x="549" y="369"/>
      <point x="367" y="258" type="curve" smooth="yes"/>
      <point x="285" y="208"/>
      <point x="244" y="182"/>
      <point x="219" y="151" type="curve"/>
      <point x="518" y="151" type="line"/>
      <point x="480" y="0" type="line"/>
      <point x="-42" y="0" type="line"/>
      <point x="-11" y="125" type="line"/>
      <point x="44" y="210"/>
      <point x="125" y="283"/>
      <point x="250" y="363" type="curve" smooth="yes"/>
      <point x="371" y="440"/>
      <point x="401" y="481"/>
      <point x="401" y="531" type="curve" smooth="yes"/>
      <point x="401" y="558"/>
      <point x="384" y="578"/>
      <point x="351" y="578" type="curve" smooth="yes"/>
      <point x="317" y="578"/>
      <point x="280" y="550"/>
      <point x="224" y="475" type="curve"/>
      <point x="75" y="567" type="line"/>
      <point x="166" y="683"/>
      <point x="256" y="732"/>
      <point x="387" y="732" type="curve" smooth="yes"/>
      <point x="524" y="732"/>
      <point x="602" y="661"/>
    </contour>
  </outline>
</glyph>
<glyph name="five" format="1">
  <advance width="586"/>
  <unicode hex="0035"/>
  <outline>
    <contour>
      <point x="614" y="720" type="line"/>
      <point x="579" y="554" type="line"/>
      <point x="262" y="554" type="line"/>
      <point x="227" y="431" type="line"/>
      <point x="233" y="431" type="line"/>
      <point x="275" y="462"/>
      <point x="318" y="485"/>
      <point x="385" y="485" type="curve" smooth="yes"/>
      <point x="495" y="485"/>
      <point x="564" y="415"/>
      <point x="564" y="293" type="curve" smooth="yes"/>
      <point x="564" y="289" type="line" smooth="yes"/>
      <point x="564" y="97"/>
      <point x="450" y="-10"/>
      <point x="246" y="-10" type="curve" smooth="yes"/>
      <point x="137" y="-10"/>
      <point x="54" y="13"/>
      <point x="-44" y="68" type="curve"/>
      <point x="41" y="211" type="line"/>
      <point x="108" y="173"/>
      <point x="173" y="150"/>
      <point x="238" y="150" type="curve" smooth="yes"/>
      <point x="309" y="150"/>
      <point x="352" y="191"/>
      <point x="352" y="259" type="curve" smooth="yes"/>
      <point x="352" y="263" type="line" smooth="yes"/>
      <point x="352" y="317"/>
      <point x="322" y="338"/>
      <point x="286" y="338" type="curve" smooth="yes"/>
      <point x="251" y="338"/>
      <point x="224" y="324"/>
      <point x="184" y="296" type="curve"/>
      <point x="50" y="296" type="line"/>
      <point x="167" y="720" type="line"/>
    </contour>
  </outline>
</glyph>
<glyph name="nine" format="1">
  <advance width="621"/>
  <unicode hex="0039"/>
  <outline>
    <contour>
      <point x="640" y="511" type="curve" smooth="yes"/>
      <point x="640" y="307"/>
      <point x="515" y="141"/>
      <point x="302" y="0" type="curve"/>
      <point x="16" y="0" type="line"/>
      <point x="211" y="106"/>
      <point x="355" y="212"/>
      <point x="409" y="292" type="curve"/>
      <point x="403" y="292" type="line"/>
      <point x="359" y="261"/>
      <point x="306" y="241"/>
      <point x="242" y="241" type="curve" smooth="yes"/>
      <point x="138" y="241"/>
      <point x="65" y="301"/>
      <point x="65" y="422" type="curve" smooth="yes"/>
      <point x="65" y="591"/>
      <point x="191" y="732"/>
      <point x="382" y="732" type="curve" smooth="yes"/>
      <point x="536" y="732"/>
      <point x="640" y="672"/>
    </contour>
    <contour>
      <point x="443" y="519" type="curve" smooth="yes"/>
      <point x="443" y="567"/>
      <point x="417" y="594"/>
      <point x="375" y="594" type="curve" smooth="yes"/>
      <point x="315" y="594"/>
      <point x="274" y="527"/>
      <point x="274" y="453" type="curve" smooth="yes"/>
      <point x="274" y="405"/>
      <point x="300" y="378"/>
      <point x="342" y="378" type="curve" smooth="yes"/>
      <point x="402" y="378"/>
      <point x="443" y="445"/>
    </contour>
  </outline>
</glyph>
<glyph name="A" format="1">
  <advance width="696"/>
  <unicode hex="0041"/>
  <outline>
    <contour>
      <point x="620" y="0" type="line"/>
      <point x="406" y="0" type="line"/>
      <point x="411" y="144" type="line"/>
      <point x="226" y="144" type="line"/>
      <point x="160" y="0" type="line"/>
      <point x="-60" y="0" type="line"/>
      <point x="322" y="722" type="line"/>
      <point x="598" y="722" type="line"/>
    </contour>
    <contour>
      <point x="426" y="567" type="line"/>
      <point x="422" y="567" type="line"/>
      <point x="289" y="280" type="line"/>
      <point x="416" y="280" type="line"/>
    </contour>
  </outline>
</glyph>
<glyph name="B" format="1">
  <advance width="630"/>
  <unicode hex="0042"/>
  <outline>
    <contour>
      <point x="660" y="556" type="curve" smooth="yes"/>
      <point x="660" y="459"/>
      <point x="588" y="401"/>
      <point x="497" y="373" type="curve"/>
      <point x="497" y="369" type="line"/>
      <point x="559" y="342"/>
      <point x="599" y="300"/>
      <point x="599" y="224" type="curve" smooth="yes"/>
      <point x="599" y="98"/>
      <point x="493" y="0"/>
      <point x="290" y="0" type="curve" smooth="yes"/>
      <point x="-26" y="0" type="line"/>
      <point x="154" y="720" type="line"/>
      <point x="423" y="720" type="line" smooth="yes"/>
      <point x="583" y="720"/>
      <point x="660" y="657"/>
    </contour>
    <contour>
      <point x="451" y="515" type="curve" smooth="yes"/>
      <point x="451" y="552"/>
      <point x="422" y="570"/>
      <point x="376" y="570" type="curve" smooth="yes"/>
      <point x="323" y="570" type="line"/>
      <point x="291" y="440" type="line"/>
      <point x="349" y="440" type="line" smooth="yes"/>
      <point x="410" y="440"/>
      <point x="451" y="466"/>
    </contour>
    <contour>
      <point x="404" y="238" type="curve" smooth="yes"/>
      <point x="404" y="284"/>
      <point x="371" y="306"/>
      <point x="308" y="306" type="curve" smooth="yes"/>
      <point x="257" y="306" type="line"/>
      <point x="218" y="150" type="line"/>
      <point x="284" y="150" type="line" smooth="yes"/>
      <point x="360" y="150"/>
      <point x="404" y="185"/>
    </contour>
  </outline>
</glyph>
<glyph name="C" format="1">
  <advance width="624"/>
  <unicode hex="0043"/>
  <outline>
    <contour>
      <point x="650" y="466" type="curve"/>
      <point x="437" y="429" type="line"/>
      <point x="450" y="530"/>
      <point x="435" y="570"/>
      <point x="389" y="570" type="curve" smooth="yes"/>
      <point x="347" y="570"/>
      <point x="317" y="514"/>
      <point x="283" y="390" type="curve" smooth="yes"/>
      <point x="261" y="311"/>
      <point x="254" y="257"/>
      <point x="254" y="221" type="curve" smooth="yes"/>
      <point x="254" y="217" type="line" smooth="yes"/>
      <point x="254" y="176"/>
      <point x="276" y="150"/>
      <point x="307" y="150" type="curve" smooth="yes"/>
      <point x="348" y="150"/>
      <point x="374" y="184"/>
      <point x="407" y="281" type="curve"/>
      <point x="599" y="225" type="line"/>
      <point x="533" y="60"/>
      <point x="451" y="-12"/>
      <point x="288" y="-12" type="curve" smooth="yes"/>
      <point x="139" y="-12"/>
      <point x="38" y="71"/>
      <point x="38" y="226" type="curve" smooth="yes"/>
      <point x="38" y="231" type="line" smooth="yes"/>
      <point x="38" y="265"/>
      <point x="45" y="333"/>
      <point x="54" y="373" type="curve" smooth="yes"/>
      <point x="111" y="628"/>
      <point x="219" y="732"/>
      <point x="408" y="732" type="curve" smooth="yes"/>
      <point x="594" y="732"/>
      <point x="668" y="624"/>
    </contour>
  </outline>
</glyph>
<glyph name="D" format="1">
  <advance width="646"/>
  <unicode hex="0044"/>
  <outline>
    <contour>
      <point x="659" y="486" type="line" smooth="yes"/>
      <point x="659" y="449"/>
      <point x="655" y="412"/>
      <point x="643" y="360" type="curve" smooth="yes"/>
      <point x="584" y="102"/>
      <point x="476" y="0"/>
      <point x="251" y="0" type="curve" smooth="yes"/>
      <point x="-26" y="0" type="line"/>
      <point x="154" y="720" type="line"/>
      <point x="391" y="720" type="line" smooth="yes"/>
      <point x="566" y="720"/>
      <point x="659" y="645"/>
      <point x="659" y="490" type="curve" smooth="yes"/>
    </contour>
    <contour>
      <point x="434" y="471" type="curve" smooth="yes"/>
      <point x="434" y="477" type="line" smooth="yes"/>
      <point x="434" y="526"/>
      <point x="411" y="558"/>
      <point x="360" y="558" type="curve" smooth="yes"/>
      <point x="324" y="558" type="line"/>
      <point x="226" y="162" type="line"/>
      <point x="264" y="162" type="line" smooth="yes"/>
      <point x="343" y="162"/>
      <point x="379" y="209"/>
      <point x="419" y="360" type="curve" smooth="yes"/>
      <point x="429" y="398"/>
      <point x="434" y="439"/>
    </contour>
  </outline>
</glyph>
<glyph name="E" format="1">
  <advance width="563"/>
  <unicode hex="0045"/>
  <outline>
    <contour>
      <point x="640" y="720" type="line"/>
      <point x="599" y="554" type="line"/>
      <point x="325" y="554" type="line"/>
      <point x="298" y="447" type="line"/>
      <point x="484" y="447" type="line"/>
      <point x="445" y="291" type="line"/>
      <point x="259" y="291" type="line"/>
      <point x="228" y="166" type="line"/>
      <point x="514" y="166" type="line"/>
      <point x="472" y="0" type="line"/>
      <point x="-26" y="0" type="line"/>
      <point x="154" y="720" type="line"/>
    </contour>
  </outline>
</glyph>
<glyph name="I" format="1">
  <advance width="466"/>
  <unicode hex="0049"/>
  <outline>
    <contour>
      <point x="548" y="720" type="line"/>
      <point x="529" y="645" type="line"/>
      <point x="434" y="645" type="line"/>
      <point x="292" y="75" type="line"/>
      <point x="387" y="75" type="line"/>
      <point x="368" y="0" type="line"/>
      <point x="-38" y="0" type="line"/>
      <point x="-19" y="75" type="line"/>
      <point x="76" y="75" type="line"/>
      <point x="218" y="645" type="line"/>
      <point x="123" y="645" type="line"/>
      <point x="142" y="720" type="line"/>
    </contour>
  </outline>
</glyph>
<glyph name="M" format="1">
  <advance width="918"/>
  <unicode hex="004D"/>
  <outline>
    <contour>
      <point x="988" y="720" type="line"/>
      <point x="808" y="0" type="line"/>
      <point x="611" y="0" type="line"/>
      <point x="730" y="476" type="line"/>
      <point x="725" y="476" type="line"/>
      <point x="490" y="0" type="line"/>
      <point x="286" y="0" type="line"/>
      <point x="289" y="476" type="line"/>
      <point x="284" y="476" type="line"/>
      <point x="165" y="0" type="line"/>
      <point x="-26" y="0" type="line"/>
      <point x="154" y="720" type="line"/>
      <point x="463" y="720" type="line"/>
      <point x="459" y="292" type="line"/>
      <point x="463" y="292" type="line"/>
      <point x="673" y="720" type="line"/>
    </contour>
  </outline>
</glyph>
<glyph name="Q" format="1">
  <advance width="660"/>
  <unicode hex="0051"/>
  <outline>
    <contour>
      <point x="666" y="489" type="line" smooth="yes"/>
      <point x="666" y="455"/>
      <point x="659" y="387"/>
      <point x="650" y="347" type="curve" smooth="yes"/>
      <point x="616" y="194"/>
      <point x="564" y="96"/>
      <point x="485" y="41" type="curve"/>
      <point x="490" y="32" type="line" smooth="yes"/>
      <point x="505" y="5"/>
      <point x="527" y="-7"/>
      <point x="561" y="-7" type="curve" smooth="yes"/>
      <point x="573" y="-7"/>
      <point x="581" y="-6"/>
      <point x="595" y="-4" type="curve"/>
      <point x="563" y="-128" type="line"/>
      <point x="552" y="-129"/>
      <point x="547" y="-129"/>
      <point x="537" y="-129" type="curve" smooth="yes"/>
      <point x="452" y="-129"/>
      <point x="408" y="-110"/>
      <point x="379" y="-41" type="curve" smooth="yes"/>
      <point x="364" y="-6" type="line"/>
      <point x="341" y="-10"/>
      <point x="317" y="-12"/>
      <point x="290" y="-12" type="curve" smooth="yes"/>
      <point x="138" y="-12"/>
      <point x="38" y="72"/>
      <point x="38" y="226" type="curve" smooth="yes"/>
      <point x="38" y="231" type="line" smooth="yes"/>
      <point x="38" y="265"/>
      <point x="45" y="333"/>
      <point x="54" y="373" type="curve" smooth="yes"/>
      <point x="111" y="628"/>
      <point x="218" y="732"/>
      <point x="414" y="732" type="curve" smooth="yes"/>
      <point x="566" y="732"/>
      <point x="666" y="648"/>
      <point x="666" y="494" type="curve" smooth="yes"/>
    </contour>
    <contour>
      <point x="450" y="497" type="curve" smooth="yes"/>
      <point x="450" y="501" type="line" smooth="yes"/>
      <point x="450" y="543"/>
      <point x="431" y="570"/>
      <point x="396" y="570" type="curve" smooth="yes"/>
      <point x="351" y="570"/>
      <point x="318" y="520"/>
      <point x="280" y="380" type="curve" smooth="yes"/>
      <point x="258" y="301"/>
      <point x="248" y="237"/>
      <point x="248" y="203" type="curve" smooth="yes"/>
      <point x="248" y="199" type="line" smooth="yes"/>
      <point x="248" y="157"/>
      <point x="267" y="130"/>
      <point x="302" y="130" type="curve" smooth="yes"/>
      <point x="310" y="130"/>
      <point x="317" y="131"/>
      <point x="324" y="133" type="curve"/>
      <point x="282" y="239" type="line"/>
      <point x="359" y="275" type="line"/>
      <point x="386" y="214" type="line"/>
      <point x="395" y="241"/>
      <point x="406" y="276"/>
      <point x="418" y="320" type="curve" smooth="yes"/>
      <point x="440" y="399"/>
      <point x="450" y="463"/>
    </contour>
  </outline>
</glyph>
<glyph name="R" format="1">
  <advance width="631"/>
  <unicode hex="0052"/>
  <outline>
    <contour>
      <point x="647" y="526" type="curve" smooth="yes"/>
      <point x="647" y="418"/>
      <point x="580" y="343"/>
      <point x="480" y="303" type="curve"/>
      <point x="569" y="0" type="line"/>
      <point x="345" y="0" type="line"/>
      <point x="275" y="270" type="line"/>
      <point x="258" y="270" type="line"/>
      <point x="190" y="0" type="line"/>
      <point x="-26" y="0" type="line"/>
      <point x="154" y="720" type="line"/>
      <point x="396" y="720" type="line" smooth="yes"/>
      <point x="563" y="720"/>
      <point x="647" y="652"/>
    </contour>
    <contour>
      <point x="435" y="504" type="curve" smooth="yes"/>
      <point x="435" y="552"/>
      <point x="405" y="570"/>
      <point x="348" y="570" type="curve" smooth="yes"/>
      <point x="323" y="570" type="line"/>
      <point x="283" y="410" type="line"/>
      <point x="332" y="410" type="line" smooth="yes"/>
      <point x="394" y="410"/>
      <point x="435" y="448"/>
    </contour>
  </outline>
</glyph>
<glyph name="S" format="1">
  <advance width="604"/>
  <unicode hex="0053"/>
  <outline>
    <contour>
      <point x="660" y="606" type="curve"/>
      <point x="500" y="492" type="line"/>
      <point x="458" y="541"/>
      <point x="409" y="572"/>
      <point x="359" y="572" type="curve" smooth="yes"/>
      <point x="310" y="572"/>
      <point x="291" y="546"/>
      <point x="291" y="519" type="curve" smooth="yes"/>
      <point x="291" y="486"/>
      <point x="300" y="472"/>
      <point x="399" y="437" type="curve" smooth="yes"/>
      <point x="526" y="393"/>
      <point x="579" y="330"/>
      <point x="579" y="231" type="curve" smooth="yes"/>
      <point x="579" y="81"/>
      <point x="460" y="-9"/>
      <point x="289" y="-9" type="curve" smooth="yes"/>
      <point x="134" y="-9"/>
      <point x="30" y="43"/>
      <point x="-30" y="123" type="curve"/>
      <point x="124" y="243" type="line"/>
      <point x="166" y="188"/>
      <point x="228" y="148"/>
      <point x="301" y="148" type="curve" smooth="yes"/>
      <point x="352" y="148"/>
      <point x="373" y="172"/>
      <point x="373" y="201" type="curve" smooth="yes"/>
      <point x="373" y="228"/>
      <point x="367" y="246"/>
      <point x="272" y="279" type="curve" smooth="yes"/>
      <point x="125" y="330"/>
      <point x="84" y="391"/>
      <point x="84" y="488" type="curve" smooth="yes"/>
      <point x="84" y="631"/>
      <point x="204" y="729"/>
      <point x="374" y="729" type="curve" smooth="yes"/>
      <point x="525" y="729"/>
      <point x="604" y="677"/>
    </contour>
  </outline>
</glyph>
<glyph name="T" format="1">
  <advance width="606"/>
  <unicode hex="0054"/>
  <outline>
    <contour>
      <point x="700" y="720" type="line"/>
      <point x="655" y="540" type="line"/>
      <point x="478" y="540" type="line"/>
      <point x="344" y="0" type="line"/>
      <point x="128" y="0" type="line"/>
      <point x="262" y="540" type="line"/>
      <point x="85" y="540" type="line"/>
      <point x="130" y="720" type="line"/>
    </contour>
  </outline>
</glyph>
<glyph name="X" format="1">
  <advance width="660"/>
  <unicode hex="0058"/>
  <outline>
    <contour>
      <point x="754" y="720" type="line"/>
      <point x="469" y="375" type="line"/>
      <point x="586" y="0" type="line"/>
      <point x="355" y="0" type="line"/>
      <point x="306" y="194" type="line"/>
      <point x="159" y="0" type="line"/>
      <point x="-62" y="0" type="line"/>
      <point x="241" y="366" type="line"/>
      <point x="130" y="720" type="line"/>
      <point x="361" y="720" type="line"/>
      <point x="404" y="547" type="line"/>
      <point x="533" y="720" type="line"/>
    </contour>
  </outline>
</glyph>
<glyph name="Y" format="1">
  <advance width="656"/>
  <unicode hex="0059"/>
  <outline>
    <contour>
      <point x="765" y="720" type="line"/>
      <point x="440" y="288" type="line"/>
      <point x="368" y="0" type="line"/>
      <point x="152" y="0" type="line"/>
      <point x="223" y="284" type="line"/>
      <point x="115" y="720" type="line"/>
      <point x="346" y="720" type="line"/>
      <point x="390" y="480" type="line"/>
      <point x="554" y="720" type="line"/>
    </contour>
  </outline>
</glyph>
<glyph name="Z" format="1">
  <advance width="578"/>
  <unicode hex="005A"/>
  <outline>
    <contour>
      <point x="662" y="720" type="line"/>
      <point x="625" y="574" type="line"/>
      <point x="247" y="166" type="line"/>
      <point x="524" y="166" type="line"/>
      <point x="482" y="0" type="line"/>
      <point x="-41" y="0" type="line"/>
      <point x="-4" y="146" type="line"/>
      <point x="374" y="554" type="line"/>
      <point x="112" y="554" type="line"/>
      <point x="154" y="720" type="line"/>
    </contour>
  </outline>
</glyph>
<glyph name="backslash" format="1">
  <advance width="476"/>
  <unicode hex="005C"/>
  <outline>
    <contour>
      <point x="408" y="-95" type="line"/>
      <point x="235" y="-95" type="line"/>
      <point x="122" y="735" type="line"/>
      <point x="295" y="735" type="line"/>
    </contour>
  </outline>
</glyph>
<glyph name="underscore" format="1">
  <advance width="500"/>
  <unicode hex="005F"/>
  <outline>
    <contour>
      <point x="427" y="-28" type="line"/>
      <point x="407" y="-111" type="line"/>
      <point x="-99" y="-111" type="line"/>
      <point x="-79" y="-28" type="line"/>
    </contour>
  </outline>
</glyph>
<glyph name="grave" format="1">
  <advance width="500"/>
  <unicode hex="0060"/>
  <outline>
    <contour>
      <point x="450" y="592" type="line"/>
      <point x="323" y="592" type="line"/>
      <point x="198" y="743" type="line"/>
      <point x="411" y="743" type="line"/>
    </contour>
  </outline>
</glyph>
<glyph name="a" format="1">
  <advance width="567"/>
  <unicode hex="0061"/>
  <outline>
    <contour>
      <point x="592" y="526" type="line"/>
      <point x="465" y="16" type="line"/>
      <point x="255" y="-8" type="line"/>
      <point x="281" y="95" type="line"/>
      <point x="277" y="95" type="line"/>
      <point x="214" y="25"/>
      <point x="170" y="-7"/>
      <point x="116" y="-7" type="curve" smooth="yes"/>
      <point x="49" y="-7"/>
      <point x="9" y="43"/>
      <point x="9" y="131" type="curve" smooth="yes"/>
      <point x="9" y="133" type="line" smooth="yes"/>
      <point x="9" y="333"/>
      <point x="116" y="549"/>
      <point x="239" y="549" type="curve" smooth="yes"/>
      <point x="297" y="549"/>
      <point x="325" y="527"/>
      <point x="368" y="463" type="curve"/>
      <point x="372" y="463" type="line"/>
      <point x="394" y="550" type="line"/>
    </contour>
    <contour>
      <point x="344" y="377" type="curve" smooth="yes"/>
      <point x="344" y="418"/>
      <point x="335" y="429"/>
      <point x="316" y="429" type="curve" smooth="yes"/>
      <point x="260" y="429"/>
      <point x="212" y="260"/>
      <point x="212" y="181" type="curve" smooth="yes"/>
      <point x="212" y="140"/>
      <point x="221" y="129"/>
      <point x="240" y="129" type="curve" smooth="yes"/>
      <point x="296" y="129"/>
      <point x="344" y="298"/>
    </contour>
  </outline>
</glyph>
<glyph name="e" format="1">
  <advance width="519"/>
  <unicode hex="0065"/>
  <outline>
    <contour>
      <point x="509" y="372" type="curve" smooth="yes"/>
      <point x="509" y="328"/>
      <point x="500" y="282"/>
      <point x="483" y="222" type="curve"/>
      <point x="198" y="222" type="line"/>
      <point x="198" y="213"/>
      <point x="197" y="206"/>
      <point x="197" y="200" type="curve" smooth="yes"/>
      <point x="197" y="198" type="line" smooth="yes"/>
      <point x="197" y="146"/>
      <point x="228" y="129"/>
      <point x="284" y="129" type="curve" smooth="yes"/>
      <point x="318" y="129"/>
      <point x="374" y="139"/>
      <point x="437" y="157" type="curve"/>
      <point x="449" y="26" type="line"/>
      <point x="370" y="3"/>
      <point x="320" y="-7"/>
      <point x="237" y="-7" type="curve" smooth="yes"/>
      <point x="81" y="-7"/>
      <point x="12" y="57"/>
      <point x="12" y="186" type="curve" smooth="yes"/>
      <point x="12" y="188" type="line" smooth="yes"/>
      <point x="12" y="214"/>
      <point x="19" y="257"/>
      <point x="28" y="294" type="curve" smooth="yes"/>
      <point x="71" y="464"/>
      <point x="165" y="552"/>
      <point x="310" y="552" type="curve" smooth="yes"/>
      <point x="446" y="552"/>
      <point x="509" y="487"/>
    </contour>
    <contour>
      <point x="331" y="386" type="curve" smooth="yes"/>
      <point x="331" y="421"/>
      <point x="322" y="438"/>
      <point x="297" y="438" type="curve" smooth="yes"/>
      <point x="263" y="438"/>
      <point x="234" y="376"/>
      <point x="213" y="297" type="curve"/>
      <point x="315" y="297" type="line"/>
      <point x="325" y="333"/>
      <point x="331" y="367"/>
    </contour>
  </outline>
</glyph>
<glyph name="k" format="1">
  <advance width="594"/>
  <unicode hex="006B"/>
  <outline>
    <contour>
      <point x="657" y="542" type="line"/>
      <point x="452" y="277" type="line"/>
      <point x="533" y="0" type="line"/>
      <point x="321" y="0" type="line"/>
      <point x="253" y="279" type="line"/>
      <point x="253" y="285" type="line"/>
      <point x="440" y="542" type="line"/>
    </contour>
    <contour>
      <point x="363" y="754" type="line"/>
      <point x="175" y="0" type="line"/>
      <point x="-29" y="0" type="line"/>
      <point x="153" y="730" type="line"/>
    </contour>
  </outline>
</glyph>
<glyph name="l" format="1">
  <advance width="286"/>
  <unicode hex="006C"/>
  <outline>
    <contour>
      <point x="365" y="754" type="line"/>
      <point x="178" y="0" type="line"/>
      <point x="-26" y="0" type="line"/>
      <point x="156" y="730" type="line"/>
    </contour>
  </outline>
</glyph>
<glyph name="o" format="1">
  <advance width="548"/>
  <unicode hex="006F"/>
  <outline>
    <contour>
      <point x="536" y="354" type="line" smooth="yes"/>
      <point x="536" y="327"/>
      <point x="529" y="285"/>
      <point x="520" y="248" type="curve" smooth="yes"/>
      <point x="477" y="78"/>
      <point x="386" y="-10"/>
      <point x="227" y="-10" type="curve" smooth="yes"/>
      <point x="88" y="-10"/>
      <point x="12" y="57"/>
      <point x="12" y="186" type="curve" smooth="yes"/>
      <point x="12" y="188" type="line" smooth="yes"/>
      <point x="12" y="215"/>
      <point x="19" y="257"/>
      <point x="28" y="294" type="curve" smooth="yes"/>
      <point x="71" y="464"/>
      <point x="162" y="552"/>
      <point x="321" y="552" type="curve" smooth="yes"/>
      <point x="460" y="552"/>
      <point x="536" y="485"/>
      <point x="536" y="356" type="curve" smooth="yes"/>
    </contour>
    <contour>
      <point x="340" y="389" type="curve" smooth="yes"/>
      <point x="340" y="391" type="line" smooth="yes"/>
      <point x="340" y="424"/>
      <point x="331" y="434"/>
      <point x="309" y="434" type="curve" smooth="yes"/>
      <point x="276" y="434"/>
      <point x="257" y="380"/>
      <point x="229" y="271" type="curve" smooth="yes"/>
      <point x="214" y="213"/>
      <point x="208" y="175"/>
      <point x="208" y="153" type="curve" smooth="yes"/>
      <point x="208" y="151" type="line" smooth="yes"/>
      <point x="208" y="118"/>
      <point x="217" y="108"/>
      <point x="239" y="108" type="curve" smooth="yes"/>
      <point x="272" y="108"/>
      <point x="291" y="162"/>
      <point x="319" y="271" type="curve" smooth="yes"/>
      <point x="334" y="329"/>
      <point x="340" y="367"/>
    </contour>
  </outline>
</glyph>
<glyph name="r" format="1">
  <advance width="444"/>
  <unicode hex="0072"/>
  <outline>
    <contour>
      <point x="504" y="551" type="curve"/>
      <point x="452" y="346" type="line"/>
      <point x="377" y="340"/>
      <point x="319" y="325"/>
      <point x="247" y="290" type="curve"/>
      <point x="175" y="0" type="line"/>
      <point x="-29" y="0" type="line"/>
      <point x="102" y="526" type="line"/>
      <point x="312" y="550" type="line"/>
      <point x="261" y="347" type="line"/>
      <point x="266" y="347" type="line"/>
      <point x="377" y="503"/>
      <point x="433" y="547"/>
    </contour>
  </outline>
</glyph>
<glyph name="s" format="1">
  <advance width="477"/>
  <unicode hex="0073"/>
  <outline>
    <contour>
      <point x="493" y="451" type="curve"/>
      <point x="371" y="362" type="line"/>
      <point x="335" y="408"/>
      <point x="303" y="431"/>
      <point x="268" y="431" type="curve" smooth="yes"/>
      <point x="239" y="431"/>
      <point x="225" y="415"/>
      <point x="225" y="398" type="curve" smooth="yes"/>
      <point x="225" y="379"/>
      <point x="236" y="365"/>
      <point x="302" y="341" type="curve" smooth="yes"/>
      <point x="406" y="303"/>
      <point x="443" y="257"/>
      <point x="443" y="186" type="curve" smooth="yes"/>
      <point x="443" y="66"/>
      <point x="349" y="-10"/>
      <point x="205" y="-10" type="curve" smooth="yes"/>
      <point x="87" y="-10"/>
      <point x="10" y="34"/>
      <point x="-36" y="95" type="curve"/>
      <point x="78" y="192" type="line"/>
      <point x="115" y="141"/>
      <point x="172" y="111"/>
      <point x="214" y="111" type="curve" smooth="yes"/>
      <point x="249" y="111"/>
      <point x="265" y="124"/>
      <point x="265" y="143" type="curve" smooth="yes"/>
      <point x="265" y="161"/>
      <point x="256" y="171"/>
      <point x="182" y="199" type="curve" smooth="yes"/>
      <point x="91" y="234"/>
      <point x="47" y="280"/>
      <point x="47" y="365" type="curve" smooth="yes"/>
      <point x="47" y="466"/>
      <point x="138" y="552"/>
      <point x="279" y="552" type="curve" smooth="yes"/>
      <point x="386" y="552"/>
      <point x="448" y="513"/>
    </contour>
  </outline>
</glyph>
<glyph name="u" format="1">
  <advance width="568"/>
  <unicode hex="0075"/>
  <outline>
    <contour>
      <point x="597" y="542" type="line"/>
      <point x="466" y="16" type="line"/>
      <point x="256" y="-8" type="line"/>
      <point x="285" y="110" type="line"/>
      <point x="281" y="110" type="line"/>
      <point x="206" y="25"/>
      <point x="155" y="-7"/>
      <point x="99" y="-7" type="curve" smooth="yes"/>
      <point x="32" y="-7"/>
      <point x="-4" y="31"/>
      <point x="-4" y="97" type="curve" smooth="yes"/>
      <point x="-4" y="114"/>
      <point x="-1" y="134"/>
      <point x="4" y="156" type="curve" smooth="yes"/>
      <point x="100" y="542" type="line"/>
      <point x="304" y="542" type="line"/>
      <point x="220" y="207" type="line" smooth="yes"/>
      <point x="217" y="195"/>
      <point x="216" y="185"/>
      <point x="216" y="176" type="curve" smooth="yes"/>
      <point x="216" y="155"/>
      <point x="228" y="144"/>
      <point x="253" y="144" type="curve" smooth="yes"/>
      <point x="266" y="144"/>
      <point x="279" y="148"/>
      <point x="297" y="157" type="curve"/>
      <point x="393" y="542" type="line"/>
    </contour>
  </outline>
</glyph>
<glyph name="y" format="1">
  <advance width="576"/>
  <unicode hex="0079"/>
  <outline>
    <contour>
      <point x="638" y="542" type="line"/>
      <point x="303" y="-53" type="line" smooth="yes"/>
      <point x="243" y="-160"/>
      <point x="181" y="-191"/>
      <point x="73" y="-191" type="curve" smooth="yes"/>
      <point x="5" y="-191"/>
      <point x="-40" y="-181"/>
      <point x="-85" y="-162" type="curve"/>
      <point x="-54" y="-37" type="line"/>
      <point x="-19" y="-37" type="line"/>
      <point x="-5" y="-69"/>
      <point x="14" y="-89"/>
      <point x="51" y="-89" type="curve" smooth="yes"/>
      <point x="77" y="-89"/>
      <point x="98" y="-79"/>
      <point x="114" y="-55" type="curve" smooth="yes"/>
      <point x="120" y="-46" type="line"/>
      <point x="72" y="542" type="line"/>
      <point x="275" y="542" type="line"/>
      <point x="267" y="193" type="line"/>
      <point x="433" y="542" type="line"/>
    </contour>
  </outline>
</glyph>
<glyph name="braceright" format="1">
  <advance width="480"/>
  <unicode hex="007D"/>
  <outline>
    <contour>
      <point x="492" y="357" type="curve"/>
      <point x="474" y="283" type="line"/>
      <point x="399" y="283"/>
      <point x="337" y="259"/>
      <point x="319" y="188" type="curve" smooth="yes"/>
      <point x="308" y="143"/>
      <point x="313" y="84"/>
      <point x="303" y="43" type="curve" smooth="yes"/>
      <point x="282" y="-42"/>
      <point x="223" y="-80"/>
      <point x="123" y="-80" type="curve" smooth="yes"/>
      <point x="-68" y="-80" type="line"/>
      <point x="-49" y="-5" type="line"/>
      <point x="31" y="-5" type="line" smooth="yes"/>
      <point x="83" y="-5"/>
      <point x="107" y="12"/>
      <point x="117" y="53" type="curve" smooth="yes"/>
      <point x="126" y="88"/>
      <point x="119" y="146"/>
      <point x="131" y="193" type="curve" smooth="yes"/>
      <point x="152" y="274"/>
      <point x="206" y="302"/>
      <point x="267" y="316" type="curve"/>
      <point x="269" y="324" type="line"/>
      <point x="211" y="344"/>
      <point x="190" y="367"/>
      <point x="190" y="412" type="curve" smooth="yes"/>
      <point x="190" y="476"/>
      <point x="251" y="558"/>
      <point x="251" y="603" type="curve" smooth="yes"/>
      <point x="251" y="629"/>
      <point x="234" y="645"/>
      <point x="193" y="645" type="curve" smooth="yes"/>
      <point x="113" y="645" type="line"/>
      <point x="132" y="720" type="line"/>
      <point x="313" y="720" type="line" smooth="yes"/>
      <point x="414" y="720"/>
      <point x="445" y="682"/>
      <point x="445" y="629" type="curve" smooth="yes"/>
      <point x="445" y="558"/>
      <point x="381" y="486"/>
      <point x="381" y="427" type="curve" smooth="yes"/>
      <point x="381" y="380"/>
      <point x="417" y="357"/>
    </contour>
  </outline>
</glyph>
<glyph name="sterling" format="1">
  <advance width="630"/>
  <unicode hex="00A3"/>
  <outline>
    <contour>
      <point x="679" y="544" type="curve"/>
      <point x="495" y="476" type="line"/>
      <point x="474" y="552"/>
      <point x="453" y="580"/>
      <point x="407" y="580" type="curve" smooth="yes"/>
      <point x="359" y="580"/>
      <point x="335" y="540"/>
      <point x="335" y="466" type="curve" smooth="yes"/>
      <point x="335" y="439"/>
      <point x="335" y="424"/>
      <point x="335" y="405" type="curve"/>
      <point x="512" y="405" type="line"/>
      <point x="489" y="310" type="line"/>
      <point x="334" y="310" type="line"/>
      <point x="330" y="257"/>
      <point x="319" y="210"/>
      <point x="301" y="169" type="curve"/>
      <point x="317" y="162"/>
      <point x="335" y="158"/>
      <point x="357" y="158" type="curve" smooth="yes"/>
      <point x="404" y="158"/>
      <point x="434" y="177"/>
      <point x="475" y="236" type="curve"/>
      <point x="599" y="191" type="line"/>
      <point x="536" y="51"/>
      <point x="466" y="-6"/>
      <point x="376" y="-6" type="curve" smooth="yes"/>
      <point x="317" y="-6"/>
      <point x="270" y="13"/>
      <point x="207" y="55" type="curve"/>
      <point x="148" y="16"/>
      <point x="68" y="-6"/>
      <point x="-38" y="-6" type="curve"/>
      <point x="-4" y="134" type="line"/>
      <point x="102" y="151"/>
      <point x="139" y="195"/>
      <point x="141" y="310" type="curve"/>
      <point x="39" y="310" type="line"/>
      <point x="62" y="405" type="line"/>
      <point x="141" y="405" type="line"/>
      <point x="141" y="436"/>
      <point x="141" y="460"/>
      <point x="141" y="460" type="curve" smooth="yes"/>
      <point x="141" y="634"/>
      <point x="236" y="732"/>
      <point x="413" y="732" type="curve" smooth="yes"/>
      <point x="583" y="732"/>
      <point x="638" y="664"/>
    </contour>
  </outline>
</glyph>
<glyph name="yen" format="1">
  <advance width="660"/>
  <unicode hex="00A5"/>
  <outline>
    <contour>
      <point x="769" y="720" type="line"/>
      <point x="537" y="420" type="line"/>
      <point x="651" y="420" type="line"/>
      <point x="627" y="325" type="line"/>
      <point x="464" y="325" type="line"/>
      <point x="435" y="288" type="line"/>
      <point x="419" y="224" type="line"/>
      <point x="602" y="224" type="line"/>
      <point x="578" y="129" type="line"/>
      <point x="395" y="129" type="line"/>
      <point x="363" y="0" type="line"/>
      <point x="161" y="0" type="line"/>
      <point x="193" y="129" type="line"/>
      <point x="10" y="129" type="line"/>
      <point x="34" y="224" type="line"/>
      <point x="217" y="224" type="line"/>
      <point x="232" y="284" type="line"/>
      <point x="221" y="325" type="line"/>
      <point x="59" y="325" type="line"/>
      <point x="83" y="420" type="line"/>
      <point x="196" y="420" type="line"/>
      <point x="115" y="720" type="line"/>
      <point x="330" y="720" type="line"/>
      <point x="375" y="455" type="line"/>
      <point x="554" y="720" type="line"/>
    </contour>
  </outline>
</glyph>
<glyph name="copyright" format="1">
  <advance width="810"/>
  <unicode hex="00A9"/>
  <outline>
    <contour>
      <point x="799" y="361" type="curve" smooth="yes"/>
      <point x="799" y="147"/>
      <point x="640" y="-12"/>
      <point x="426" y="-12" type="curve" smooth="yes"/>
      <point x="212" y="-12"/>
      <point x="55" y="145"/>
      <point x="55" y="359" type="curve" smooth="yes"/>
      <point x="55" y="573"/>
      <point x="214" y="732"/>
      <point x="428" y="732" type="curve" smooth="yes"/>
      <point x="642" y="732"/>
      <point x="799" y="575"/>
    </contour>
    <contour>
      <point x="750" y="359" type="curve" smooth="yes"/>
      <point x="750" y="551"/>
      <point x="618" y="690"/>
      <point x="426" y="690" type="curve" smooth="yes"/>
      <point x="234" y="690"/>
      <point x="104" y="553"/>
      <point x="104" y="361" type="curve" smooth="yes"/>
      <point x="104" y="169"/>
      <point x="236" y="30"/>
      <point x="428" y="30" type="curve" smooth="yes"/>
      <point x="620" y="30"/>
      <point x="750" y="167"/>
    </contour>
    <contour>
      <point x="598" y="290" type="line"/>
      <point x="583" y="192"/>
      <point x="526" y="141"/>
      <point x="427" y="141" type="curve" smooth="yes"/>
      <point x="322" y="141"/>
      <point x="248" y="209"/>
      <point x="248" y="344" type="curve" smooth="yes"/>
      <point x="248" y="386" type="line" smooth="yes"/>
      <point x="248" y="521"/>
      <point x="322" y="588"/>
      <point x="427" y="588" type="curve" smooth="yes"/>
      <point x="541" y="588"/>
      <point x="585" y="523"/>
      <point x="597" y="437" type="curve"/>
      <point x="473" y="409" type="line"/>
      <point x="467" y="468"/>
      <point x="456" y="491"/>
      <point x="427" y="491" type="curve" smooth="yes"/>
      <point x="394" y="491"/>
      <point x="383" y="458"/>
      <point x="383" y="403" type="curve" smooth="yes"/>
      <point x="383" y="326" type="line" smooth="yes"/>
      <point x="383" y="272"/>
      <point x="394" y="239"/>
      <point x="428" y="239" type="curve" smooth="yes"/>
      <point x="458" y="239"/>
      <point x="470" y="259"/>
      <point x="479" y="317" type="curve"/>
    </contour>
  </outline>
</glyph>
<glyph name="degree" format="1">
  <advance width="400"/>
  <unicode hex="00B0"/>
  <outline>
    <contour>
      <point x="417" y="561" type="curve" smooth="yes"/>
      <point x="417" y="466"/>
      <point x="347" y="398"/>
      <point x="252" y="398" type="curve" smooth="yes"/>
      <point x="157" y="398"/>
      <point x="87" y="466"/>
      <point x="87" y="561" type="curve" smooth="yes"/>
      <point x="87" y="656"/>
      <point x="157" y="724"/>
      <point x="252" y="724" type="curve" smooth="yes"/>
      <point x="347" y="724"/>
      <point x="417" y="656"/>
    </contour>
    <contour>
      <point x="326" y="561" type="curve" smooth="yes"/>
      <point x="326" y="608"/>
      <point x="298" y="644"/>
      <point x="252" y="644" type="curve" smooth="yes"/>
      <point x="206" y="644"/>
      <point x="178" y="608"/>
      <point x="178" y="561" type="curve" smooth="yes"/>
      <point x="178" y="514"/>
      <point x="206" y="478"/>
      <point x="252" y="478" type="curve" smooth="yes"/>
      <point x="298" y="478"/>
      <point x="326" y="514"/>
    </contour>
  </outline>
</glyph>
<glyph name="paragraph" format="1">
  <advance width="570"/>
  <unicode hex="00B6"/>
  <outline>
    <contour>
      <point x="628" y="720" type="line"/>
      <point x="448" y="0" type="line"/>
      <point x="372" y="0" type="line"/>
      <point x="534" y="649" type="line"/>
      <point x="455" y="649" type="line"/>
      <point x="293" y="0" type="line"/>
      <point x="217" y="0" type="line"/>
      <point x="287" y="277" type="line"/>
      <point x="174" y="298"/>
      <point x="81" y="351"/>
      <point x="81" y="482" type="curve" smooth="yes"/>
      <point x="81" y="622"/>
      <point x="192" y="720"/>
      <point x="386" y="720" type="curve" smooth="yes"/>
    </contour>
  </outline>
</glyph>
<glyph name="guillemotright" format="1">
  <advance width="540"/>
  <unicode hex="00BB"/>
  <outline>
    <contour>
      <point x="530" y="271" type="line"/>
      <point x="321" y="65" type="line"/>
      <point x="210" y="65" type="line"/>
      <point x="328" y="271" type="line"/>
      <point x="312" y="477" type="line"/>
      <point x="409" y="477" type="line"/>
    </contour>
    <contour>
      <point x="294" y="271" type="line"/>
      <point x="85" y="65" type="line"/>
      <point x="-26" y="65" type="line"/>
      <point x="92" y="271" type="line"/>
      <point x="76" y="477" type="line"/>
      <point x="173" y="477" type="line"/>
    </contour>
  </outline>
</glyph>
<glyph name="AE" format="1">
  <advance width="982"/>
  <unicode hex="00C6"/>
  <outline>
    <contour>
      <point x="1058" y="720" type="line"/>
      <point x="1017" y="554" type="line"/>
      <point x="743" y="554" type="line"/>
      <point x="716" y="447" type="line"/>
      <point x="902" y="447" type="line"/>
      <point x="863" y="291" type="line"/>
      <point x="677" y="291" type="line"/>
      <point x="646" y="166" type="line"/>
      <point x="932" y="166" type="line"/>
      <point x="890" y="0" type="line"/>
      <point x="398" y="0" type="line"/>
      <point x="434" y="144" type="line"/>
      <point x="246" y="144" type="line"/>
      <point x="154" y="0" type="line"/>
      <point x="-72" y="0" type="line"/>
      <point x="422" y="720" type="line"/>
    </contour>
    <contour>
      <point x="539" y="565" type="line"/>
      <point x="516" y="565" type="line"/>
      <point x="333" y="280" type="line"/>
      <point x="468" y="280" type="line"/>
    </contour>
  </outline>
</glyph>
<glyph name="Eth" format="1">
  <advance width="686"/>
  <unicode hex="00D0"/>
  <outline>
    <contour>
      <point x="699" y="486" type="line" smooth="yes"/>
      <point x="699" y="449"/>
      <point x="695" y="412"/>
      <point x="683" y="360" type="curve" smooth="yes"/>
      <point x="624" y="102"/>
      <point x="516" y="0"/>
      <point x="291" y="0" type="curve" smooth="yes"/>
      <point x="14" y="0" type="line"/>
      <point x="86" y="286" type="line"/>
      <point x="19" y="286" type="line"/>
      <point x="60" y="452" type="line"/>
      <point x="127" y="452" type="line"/>
      <point x="194" y="720" type="line"/>
      <point x="431" y="720" type="line" smooth="yes"/>
      <point x="606" y="720"/>
      <point x="699" y="645"/>
      <point x="699" y="490" type="curve" smooth="yes"/>
    </contour>
    <contour>
      <point x="474" y="471" type="curve" smooth="yes"/>
      <point x="474" y="477" type="line" smooth="yes"/>
      <point x="474" y="526"/>
      <point x="451" y="558"/>
      <point x="400" y="558" type="curve" smooth="yes"/>
      <point x="354" y="558" type="line"/>
      <point x="328" y="452" type="line"/>
      <point x="406" y="452" type="line"/>
      <point x="365" y="286" type="line"/>
      <point x="287" y="286" type="line"/>
      <point x="256" y="162" type="line"/>
      <point x="304" y="162" type="line" smooth="yes"/>
      <point x="383" y="162"/>
      <point x="419" y="209"/>
      <point x="459" y="360" type="curve" smooth="yes"/>
      <point x="469" y="398"/>
      <point x="474" y="439"/>
    </contour>
  </outline>
</glyph>
<glyph name="Thorn" format="1">
  <advance width="601"/>
  <unicode hex="00DE"/>
  <outline>
    <contour>
      <point x="613" y="408" type="curve" smooth="yes"/>
      <point x="613" y="241"/>
      <point x="489" y="138"/>
      <point x="294" y="138" type="curve" smooth="yes"/>
      <point x="225" y="138" type="line"/>
      <point x="190" y="0" type="line"/>
      <point x="-26" y="0" type="line"/>
      <point x="154" y="720" type="line"/>
      <point x="370" y="720" type="line"/>
      <point x="340" y="602" type="line"/>
      <point x="362" y="602" type="line" smooth="yes"/>
      <point x="529" y="602"/>
      <point x="613" y="534"/>
    </contour>
    <contour>
      <point x="401" y="386" type="curve" smooth="yes"/>
      <point x="401" y="435"/>
      <point x="372" y="452"/>
      <point x="314" y="452" type="curve" smooth="yes"/>
      <point x="294" y="452" type="line"/>
      <point x="254" y="292" type="line"/>
      <point x="298" y="292" type="line" smooth="yes"/>
      <point x="360" y="292"/>
      <point x="401" y="330"/>
    </contour>
  </outline>
</glyph>
<glyph name="eth" format="1">
  <advance width="550"/>
  <unicode hex="00F0"/>
  <outline>
    <contour>
      <point x="610" y="762" type="line"/>
      <point x="594" y="699" type="line"/>
      <point x="494" y="667" type="line"/>
      <point x="532" y="607"/>
      <point x="554" y="536"/>
      <point x="554" y="456" type="curve" smooth="yes"/>
      <point x="554" y="451" type="line" smooth="yes"/>
      <point x="554" y="399"/>
      <point x="546" y="351"/>
      <point x="520" y="248" type="curve" smooth="yes"/>
      <point x="477" y="78"/>
      <point x="386" y="-10"/>
      <point x="227" y="-10" type="curve" smooth="yes"/>
      <point x="88" y="-10"/>
      <point x="12" y="57"/>
      <point x="12" y="186" type="curve" smooth="yes"/>
      <point x="12" y="188" type="line" smooth="yes"/>
      <point x="12" y="215"/>
      <point x="19" y="257"/>
      <point x="28" y="294" type="curve" smooth="yes"/>
      <point x="70" y="462"/>
      <point x="157" y="542"/>
      <point x="269" y="542" type="curve" smooth="yes"/>
      <point x="334" y="542"/>
      <point x="370" y="516"/>
      <point x="394" y="470" type="curve"/>
      <point x="398" y="470" type="line"/>
      <point x="399" y="517"/>
      <point x="380" y="570"/>
      <point x="346" y="619" type="curve"/>
      <point x="208" y="575" type="line"/>
      <point x="224" y="638" type="line"/>
      <point x="307" y="665" type="line"/>
      <point x="289" y="683"/>
      <point x="268" y="700"/>
      <point x="244" y="715" type="curve"/>
      <point x="418" y="762" type="line"/>
      <point x="433" y="747"/>
      <point x="448" y="731"/>
      <point x="461" y="714" type="curve"/>
    </contour>
    <contour>
      <point x="340" y="389" type="curve" smooth="yes"/>
      <point x="340" y="391" type="line" smooth="yes"/>
      <point x="340" y="424"/>
      <point x="331" y="434"/>
      <point x="309" y="434" type="curve" smooth="yes"/>
      <point x="276" y="434"/>
      <point x="257" y="380"/>
      <point x="229" y="271" type="curve" smooth="yes"/>
      <point x="214" y="213"/>
      <point x="208" y="175"/>
      <point x="208" y="153" type="curve" smooth="yes"/>
      <point x="208" y="151" type="line" smooth="yes"/>
      <point x="208" y="118"/>
      <point x="217" y="108"/>
      <point x="239" y="108" type="curve" smooth="yes"/>
      <point x="272" y="108"/>
      <point x="291" y="162"/>
      <point x="319" y="271" type="curve" smooth="yes"/>
      <point x="334" y="329"/>
      <point x="340" y="367"/>
    </contour>
  </outline>
</glyph>
<glyph name="divide" format="1">
  <advance width="600"/>
  <unicode hex="00F7"/>
  <outline>
    <contour>
      <point x="426" y="601" type="curve" smooth="yes"/>
      <point x="426" y="541"/>
      <point x="381" y="496"/>
      <point x="321" y="496" type="curve" smooth="yes"/>
      <point x="261" y="496"/>
      <point x="216" y="541"/>
      <point x="216" y="601" type="curve" smooth="yes"/>
      <point x="216" y="661"/>
      <point x="261" y="706"/>
      <point x="321" y="706" type="curve" smooth="yes"/>
      <point x="381" y="706"/>
      <point x="426" y="661"/>
    </contour>
    <contour>
      <point x="588" y="274" type="line"/>
      <point x="54" y="274" type="line"/>
      <point x="54" y="436" type="line"/>
      <point x="588" y="436" type="line"/>
    </contour>
    <contour>
      <point x="426" y="109" type="curve" smooth="yes"/>
      <point x="426" y="49"/>
      <point x="381" y="4"/>
      <point x="321" y="4" type="curve" smooth="yes"/>
      <point x="261" y="4"/>
      <point x="216" y="49"/>
      <point x="216" y="109" type="curve" smooth="yes"/>
      <point x="216" y="169"/>
      <point x="261" y="214"/>
      <point x="321" y="214" type="curve" smooth="yes"/>
      <point x="381" y="214"/>
      <point x="426" y="169"/>
    </contour>
  </outline>
</glyph>
<glyph name="Lslash" format="1">
  <advance width="576"/>
  <unicode hex="0141"/>
  <outline>
    <contour>
      <point x="535" y="180" type="line"/>
      <point x="490" y="0" type="line"/>
      <point x="14" y="0" type="line"/>
      <point x="80" y="262" type="line"/>
      <point x="6" y="236" type="line"/>
      <point x="47" y="402" type="line"/>
      <point x="121" y="428" type="line"/>
      <point x="194" y="720" type="line"/>
      <point x="404" y="720" type="line"/>
      <point x="352" y="510" type="line"/>
      <point x="482" y="557" type="line"/>
      <point x="440" y="391" type="line"/>
      <point x="310" y="345" type="line"/>
      <point x="269" y="180" type="line"/>
    </contour>
  </outline>
</glyph>
<glyph name="circumflex" format="1">
  <advance width="500"/>
  <unicode hex="02C6"/>
  <outline>
    <contour>
      <point x="509" y="592" type="line"/>
      <point x="420" y="592" type="line"/>
      <point x="352" y="661" type="line"/>
      <point x="250" y="592" type="line"/>
      <point x="151" y="592" type="line"/>
      <point x="300" y="763" type="line"/>
      <point x="444" y="763" type="line"/>
    </contour>
  </outline>
</glyph>
<glyph name="tilde" format="1">
  <advance width="500"/>
  <unicode hex="02DC"/>
  <outline>
    <contour>
      <point x="556" y="765" type="line"/>
      <point x="534" y="644"/>
      <point x="487" y="590"/>
      <point x="410" y="590" type="curve" smooth="yes"/>
      <point x="340" y="590"/>
      <point x="314" y="640"/>
      <point x="280" y="640" type="curve" smooth="yes"/>
      <point x="259" y="640"/>
      <point x="246" y="627"/>
      <point x="237" y="592" type="curve"/>
      <point x="147" y="592" type="line"/>
      <point x="169" y="713"/>
      <point x="215" y="767"/>
      <point x="292" y="767" type="curve" smooth="yes"/>
      <point x="362" y="767"/>
      <point x="389" y="717"/>
      <point x="423" y="717" type="curve" smooth="yes"/>
      <point x="444" y="717"/>
      <point x="456" y="730"/>
      <point x="466" y="765" type="curve"/>
    </contour>
  </outline>
</glyph>
<glyph name="hungarumlaut" format="1">
  <advance width="500"/>
  <unicode hex="02DD"/>
  <outline>
    <contour>
      <point x="624" y="743" type="line"/>
      <point x="434" y="592" type="line"/>
      <point x="316" y="592" type="line"/>
      <point x="418" y="743" type="line"/>
    </contour>
    <contour>
      <point x="390" y="743" type="line"/>
      <point x="200" y="592" type="line"/>
      <point x="82" y="592" type="line"/>
      <point x="184" y="743" type="line"/>
    </contour>
  </outline>
</glyph>
<glyph name="quoteleft" format="1">
  <advance width="268"/>
  <unicode hex="2018"/>
  <unicode hex="02BB"/>
  <outline>
    <contour>
      <point x="334" y="720" type="line"/>
      <point x="282" y="399" type="line"/>
      <point x="176" y="399" type="line"/>
      <point x="125" y="720" type="line"/>
    </contour>
  </outline>
</glyph>
<glyph name="quotesinglbase" format="1">
  <advance width="268"/>
  <unicode hex="201A"/>
  <outline>
    <contour>
      <point x="247" y="208" type="line"/>
      <point x="53" y="-113" type="line"/>
      <point x="-65" y="-113" type="line"/>
      <point x="30" y="208" type="line"/>
    </contour>
  </outline>
</glyph>
<glyph name="quotedblright" format="1">
  <advance width="510"/>
  <unicode hex="201D"/>
  <outline>
    <contour>
      <point x="617" y="720" type="line"/>
      <point x="423" y="399" type="line"/>
      <point x="310" y="399" type="line"/>
      <point x="405" y="720" type="line"/>
    </contour>
    <contour>
      <point x="370" y="720" type="line"/>
      <point x="176" y="399" type="line"/>
      <point x="63" y="399" type="line"/>
      <point x="158" y="720" type="line"/>
    </contour>
  </outline>
</glyph>
<glyph name="quotedblbase" format="1">
  <advance width="510"/>
  <unicode hex="201E"/>
  <outline>
    <contour>
      <point x="489" y="208" type="line"/>
      <point x="295" y="-113" type="line"/>
      <point x="182" y="-113" type="line"/>
      <point x="277" y="208" type="line"/>
    </contour>
    <contour>
      <point x="242" y="208" type="line"/>
      <point x="48" y="-113" type="line"/>
      <point x="-65" y="-113" type="line"/>
      <point x="30" y="208" type="line"/>
    </contour>
  </outline>
</glyph>
<glyph name="dagger" format="1">
  <advance width="510"/>
  <unicode hex="2020"/>
  <outline>
    <contour>
      <point x="564" y="570" type="line"/>
      <point x="527" y="419" type="line"/>
      <point x="361" y="465" type="line"/>
      <point x="376" y="337" type="line"/>
      <point x="222" y="0" type="line"/>
      <point x="152" y="0" type="line"/>
      <point x="166" y="337" type="line"/>
      <point x="245" y="465" type="line"/>
      <point x="57" y="419" type="line"/>
      <point x="94" y="570" type="line"/>
      <point x="259" y="523" type="line"/>
      <point x="262" y="720" type="line"/>
      <point x="472" y="720" type="line"/>
      <point x="375" y="523" type="line"/>
    </contour>
  </outline>
</glyph>
<glyph name="daggerdbl" format="1">
  <advance width="540"/>
  <unicode hex="2021"/>
  <outline>
    <contour>
      <point x="584" y="590" type="line"/>
      <point x="547" y="439" type="line"/>
      <point x="376" y="485" type="line"/>
      <point x="393" y="360" type="line"/>
      <point x="314" y="235" type="line"/>
      <point x="507" y="281" type="line"/>
      <point x="470" y="130" type="line"/>
      <point x="299" y="177" type="line"/>
      <point x="307" y="0" type="line"/>
      <point x="97" y="0" type="line"/>
      <point x="193" y="177" type="line"/>
      <point x="0" y="130" type="line"/>
      <point x="37" y="281" type="line"/>
      <point x="208" y="235" type="line"/>
      <point x="190" y="360" type="line"/>
      <point x="270" y="485" type="line"/>
      <point x="77" y="439" type="line"/>
      <point x="114" y="590" type="line"/>
      <point x="285" y="543" type="line"/>
      <point x="277" y="720" type="line"/>
      <point x="487" y="720" type="line"/>
      <point x="391" y="543" type="line"/>
    </contour>
  </outline>
</glyph>
<glyph name="ellipsis" format="1">
  <advance width="796"/>
  <unicode hex="2026"/>
  <outline>
    <contour>
      <point x="731" y="98" type="curve" smooth="yes"/>
      <point x="731" y="38"/>
      <point x="686" y="-7"/>
      <point x="626" y="-7" type="curve" smooth="yes"/>
      <point x="566" y="-7"/>
      <point x="521" y="38"/>
      <point x="521" y="98" type="curve" smooth="yes"/>
      <point x="521" y="158"/>
      <point x="566" y="203"/>
      <point x="626" y="203" type="curve" smooth="yes"/>
      <point x="686" y="203"/>
      <point x="731" y="158"/>
    </contour>
    <contour>
      <point x="463" y="98" type="curve" smooth="yes"/>
      <point x="463" y="38"/>
      <point x="418" y="-7"/>
      <point x="358" y="-7" type="curve" smooth="yes"/>
      <point x="298" y="-7"/>
      <point x="253" y="38"/>
      <point x="253" y="98" type="curve" smooth="yes"/>
      <point x="253" y="158"/>
      <point x="298" y="203"/>
      <point x="358" y="203" type="curve" smooth="yes"/>
      <point x="418" y="203"/>
      <point x="463" y="158"/>
    </contour>
    <contour>
      <point x="195" y="98" type="curve" smooth="yes"/>
      <point x="195" y="38"/>
      <point x="150" y="-7"/>
      <point x="90" y="-7" type="curve" smooth="yes"/>
      <point x="30" y="-7"/>
      <point x="-15" y="38"/>
      <point x="-15" y="98" type="curve" smooth="yes"/>
      <point x="-15" y="158"/>
      <point x="30" y="203"/>
      <point x="90" y="203" type="curve" smooth="yes"/>
      <point x="150" y="203"/>
      <point x="195" y="158"/>
    </contour>
  </outline>
</glyph>
<glyph name="guilsinglleft" format="1">
  <advance width="304"/>
  <unicode hex="2039"/>
  <outline>
    <contour>
      <point x="330" y="477" type="line"/>
      <point x="212" y="271" type="line"/>
      <point x="228" y="65" type="line"/>
      <point x="131" y="65" type="line"/>
      <point x="10" y="271" type="line"/>
      <point x="219" y="477" type="line"/>
    </contour>
  </outline>
</glyph>
<glyph name="fraction" format="1">
  <advance width="420"/>
  <unicode hex="2044"/>
  <outline>
    <contour>
      <point x="594" y="735" type="line"/>
      <point x="54" y="-15" type="line"/>
      <point x="-132" y="-15" type="line"/>
      <point x="408" y="735" type="line"/>
    </contour>
  </outline>
</glyph>
<glyph name="Euro" format="1">
  <advance width="628"/>
  <unicode hex="20AC"/>
  <outline>
    <contour>
      <point x="674" y="584" type="curve"/>
      <point x="518" y="481" type="line"/>
      <point x="479" y="552"/>
      <point x="449" y="582"/>
      <point x="397" y="582" type="curve" smooth="yes"/>
      <point x="346" y="582"/>
      <point x="311" y="547"/>
      <point x="283" y="465" type="curve"/>
      <point x="469" y="465" type="line"/>
      <point x="449" y="385" type="line"/>
      <point x="261" y="385" type="line"/>
      <point x="256" y="363"/>
      <point x="252" y="343"/>
      <point x="249" y="325" type="curve"/>
      <point x="434" y="325" type="line"/>
      <point x="414" y="245" type="line"/>
      <point x="239" y="245" type="line"/>
      <point x="239" y="239"/>
      <point x="239" y="234"/>
      <point x="239" y="229" type="curve" smooth="yes"/>
      <point x="239" y="224" type="line" smooth="yes"/>
      <point x="239" y="172"/>
      <point x="269" y="136"/>
      <point x="326" y="136" type="curve" smooth="yes"/>
      <point x="371" y="136"/>
      <point x="411" y="161"/>
      <point x="477" y="223" type="curve"/>
      <point x="571" y="104" type="line"/>
      <point x="485" y="24"/>
      <point x="407" y="-12"/>
      <point x="302" y="-12" type="curve" smooth="yes"/>
      <point x="135" y="-12"/>
      <point x="38" y="72"/>
      <point x="38" y="226" type="curve" smooth="yes"/>
      <point x="38" y="231" type="line" smooth="yes"/>
      <point x="38" y="270"/>
      <point x="45" y="340"/>
      <point x="53" y="375" type="curve" smooth="yes"/>
      <point x="109" y="619"/>
      <point x="213" y="732"/>
      <point x="407" y="732" type="curve" smooth="yes"/>
      <point x="549" y="732"/>
      <point x="617" y="682"/>
    </contour>
  </outline>
</glyph>
<glyph name="trademark" format="1">
  <advance width="780"/>
  <unicode hex="2122"/>
  <outline>
    <contour>
      <point x="857" y="720" type="line"/>
      <point x="773" y="382" type="line"/>
      <point x="671" y="382" type="line"/>
      <point x="726" y="604" type="line"/>
      <point x="724" y="604" type="line"/>
      <point x="615" y="382" type="line"/>
      <point x="521" y="382" type="line"/>
      <point x="523" y="604" type="line"/>
      <point x="521" y="604" type="line"/>
      <point x="466" y="382" type="line"/>
      <point x="370" y="382" type="line"/>
      <point x="454" y="720" type="line"/>
      <point x="606" y="720" type="line"/>
      <point x="604" y="522" type="line"/>
      <point x="606" y="522" type="line"/>
      <point x="704" y="720" type="line"/>
    </contour>
    <contour>
      <point x="413" y="720" type="line"/>
      <point x="391" y="631" type="line"/>
      <point x="308" y="631" type="line"/>
      <point x="246" y="382" type="line"/>
      <point x="137" y="382" type="line"/>
      <point x="199" y="631" type="line"/>
      <point x="116" y="631" type="line"/>
      <point x="138" y="720" type="line"/>
    </contour>
  </outline>
</glyph>
<glyph name="radical" format="1">
  <advance width="628"/>
  <unicode hex="221A"/>
  <outline>
    <contour>
      <point x="723" y="720" type="line"/>
      <point x="336" y="-4" type="line"/>
      <point x="113" y="-4" type="line"/>
      <point x="31" y="340" type="line"/>
      <point x="233" y="340" type="line"/>
      <point x="256" y="160" type="line"/>
      <point x="491" y="720" type="line"/>
    </contour>
  </outline>
</glyph>
<glyph name="fl" format="1">
  <advance width="710"/>
  <unicode hex="FB02"/>
  <outline>
    <contour>
      <point x="789" y="754" type="line"/>
      <point x="602" y="0" type="line"/>
      <point x="398" y="0" type="line"/>
      <point x="580" y="730" type="line"/>
    </contour>
    <contour>
      <point x="540" y="748" type="curve"/>
      <point x="507" y="618" type="line"/>
      <point x="491" y="622"/>
      <point x="475" y="624"/>
      <point x="453" y="624" type="curve" smooth="yes"/>
      <point x="408" y="624"/>
      <point x="382" y="607"/>
      <point x="370" y="560" type="curve" smooth="yes"/>
      <point x="365" y="540" type="line"/>
      <point x="488" y="540" type="line"/>
      <point x="455" y="406" type="line"/>
      <point x="332" y="406" type="line"/>
      <point x="231" y="0" type="line"/>
      <point x="31" y="0" type="line"/>
      <point x="132" y="406" type="line"/>
      <point x="43" y="406" type="line"/>
      <point x="76" y="540" type="line"/>
      <point x="165" y="540" type="line"/>
      <point x="177" y="585" type="line" smooth="yes"/>
      <point x="211" y="713"/>
      <point x="275" y="759"/>
      <point x="418" y="759" type="curve" smooth="yes"/>
      <point x="471" y="759"/>
      <point x="505" y="756"/>
    </contour>
  </outline>
</glyph>
<glyph name="registered.big" format="1">
  <advance width="810"/>
  <outline>
    <contour>
      <point x="799" y="361" type="curve" smooth="yes"/>
      <point x="799" y="147"/>
      <point x="640" y="-12"/>
      <point x="426" y="-12" type="curve" smooth="yes"/>
      <point x="212" y="-12"/>
      <point x="55" y="145"/>
      <point x="55" y="359" type="curve" smooth="yes"/>
      <point x="55" y="573"/>
      <point x="214" y="732"/>
      <point x="428" y="732" type="curve" smooth="yes"/>
      <point x="642" y="732"/>
      <point x="799" y="575"/>
    </contour>
    <contour>
      <point x="750" y="359" type="curve" smooth="yes"/>
      <point x="750" y="551"/>
      <point x="618" y="690"/>
      <point x="426" y="690" type="curve" smooth="yes"/>
      <point x="234" y="690"/>
      <point x="104" y="553"/>
      <point x="104" y="361" type="curve" smooth="yes"/>
      <point x="104" y="169"/>
      <point x="236" y="30"/>
      <point x="428" y="30" type="curve" smooth="yes"/>
      <point x="620" y="30"/>
      <point x="750" y="167"/>
    </contour>
    <contour>
      <point x="626" y="153" type="line"/>
      <point x="488" y="153" type="line"/>
      <point x="410" y="315" type="line"/>
      <point x="399" y="315" type="line"/>
      <point x="399" y="153" type="line"/>
      <point x="269" y="153" type="line"/>
      <point x="269" y="585" type="line"/>
      <point x="440" y="585" type="line" smooth="yes"/>
      <point x="539" y="585"/>
      <point x="603" y="543"/>
      <point x="603" y="451" type="curve" smooth="yes"/>
      <point x="603" y="397"/>
      <point x="578" y="357"/>
      <point x="532" y="335" type="curve"/>
    </contour>
    <contour>
      <point x="474" y="450" type="curve" smooth="yes"/>
      <point x="474" y="480"/>
      <point x="456" y="495"/>
      <point x="423" y="495" type="curve" smooth="yes"/>
      <point x="393" y="495" type="line"/>
      <point x="393" y="399" type="line"/>
      <point x="423" y="399" type="line" smooth="yes"/>
      <point x="457" y="399"/>
      <point x="474" y="418"/>
    </contour>
  </outline>
</glyph>
